HIERARCHY
ROOT Hips
{
	OFFSET -0.001795 -0.223333 0.028219
	CHANNELS 6 Xposition Yposition Zposition Zrotation Yrotation Xrotation 
	JOINT LeftUpLeg
	{
		OFFSET 0.069520 -0.091406 -0.006815
		CHANNELS 3 Zrotation Yrotation Xrotation
		JOINT LeftLeg
		{
			OFFSET 0.034277 -0.375199 -0.004496
			CHANNELS 3 Zrotation Yrotation Xrotation
			JOINT LeftFoot
			{
				OFFSET -0.013596 -0.397961 -0.043693
				CHANNELS 3 Zrotation Yrotation Xrotation
				JOINT LeftToe
				{
					OFFSET 0.026358 -0.055791 0.119288
					CHANNELS 3 Zrotation Yrotation Xrotation
					End Site
					{
						OFFSET 0.000000 0.000000 0.000000
					}
				}
			}
		}
	}
	JOINT RightUpLeg
	{
		OFFSET -0.067670 -0.090522 -0.004320
		CHANNELS 3 Zrotation Yrotation Xrotation
		JOINT RightLeg
		{
			OFFSET -0.038290 -0.382569 -0.008850
			CHANNELS 3 Zrotation Yrotation Xrotation
			JOINT RightFoot
			{
				OFFSET 0.015774 -0.398415 -0.042312
				CHANNELS 3 Zrotation Yrotation Xrotation
				JOINT RightToe
				{
					OFFSET -0.025372 -0.048144 0.123348
					CHANNELS 3 Zrotation Yrotation Xrotation
					End Site
					{
						OFFSET 0.000000 0.000000 0.000000
					}
				}
			}
		}
	}
	JOINT Spine
	{
		OFFSET -0.002533 0.108963 -0.026696
		CHANNELS 3 Zrotation Yrotation Xrotation
		JOINT Spine1
		{
			OFFSET 0.005487 0.135180 0.001092
			CHANNELS 3 Zrotation Yrotation Xrotation
			JOINT Spine2
			{
				OFFSET 0.001457 0.052922 0.025425
				CHANNELS 3 Zrotation Yrotation Xrotation
				JOINT Neck
				{
					OFFSET -0.002778 0.213870 -0.042857
					CHANNELS 3 Zrotation Yrotation Xrotation
					JOINT Head
					{
						OFFSET 0.005152 0.064970 0.051349
						CHANNELS 3 Zrotation Yrotation Xrotation
						End Site
						{
							OFFSET 0.000000 0.000000 0.000000
						}
					}
				}
				JOINT LeftShoulder
				{
					OFFSET 0.078845 0.121749 -0.034090
					CHANNELS 3 Zrotation Yrotation Xrotation
					JOINT LeftArm
					{
						OFFSET 0.090977 0.030469 -0.008868
						CHANNELS 3 Zrotation Yrotation Xrotation
						JOINT LeftForeArm
						{
							OFFSET 0.259612 -0.012772 -0.027456
							CHANNELS 3 Zrotation Yrotation Xrotation
							JOINT LeftHand
							{
								OFFSET 0.249234 0.008986 -0.001171
								CHANNELS 3 Zrotation Yrotation Xrotation
								End Site
								{
									OFFSET 0.000000 0.000000 0.000000
								}
							}
						}
					}
				}
				JOINT RightShoulder
				{
					OFFSET -0.081759 0.118833 -0.038615
					CHANNELS 3 Zrotation Yrotation Xrotation
					JOINT RightArm
					{
						OFFSET -0.096012 0.032551 -0.009143
						CHANNELS 3 Zrotation Yrotation Xrotation
						JOINT RightForeArm
						{
							OFFSET -0.253742 -0.013329 -0.021401
							CHANNELS 3 Zrotation Yrotation Xrotation
							JOINT RightHand
							{
								OFFSET -0.255298 0.007772 -0.005559
								CHANNELS 3 Zrotation Yrotation Xrotation
								End Site
								{
									OFFSET 0.000000 0.000000 0.000000
								}
							}
						}
					}
				}
			}
		}
	}
}
MOTION
Frames: 12
Frame Time: 0.050000
-0.380040 0.936738 -0.027276 -1.688827 1.945243 4.476301 5.969298 -0.118271 1.416089 1.534855 0.125265 -6.097760 2.618011 7.434485 5.900421 0.000000 0.000000 0.000000 -0.683557 0.591677 -6.010470 -0.338761 0.030020 -0.153980 0.282941 -0.827417 3.263212 0.000000 0.000000 0.000000 -1.519974 0.184584 -5.695019 0.187478 -0.178602 2.332019 2.531696 -0.085478 4.285130 6.847495 -2.951708 -16.029850 0.000000 0.000000 0.000000 -27.579950 -4.595502 -0.033475 -31.275823 -0.517804 -3.425221 -69.122229 -50.938343 38.800784 0.000000 0.000000 0.000000 18.636995 10.911625 4.256913 18.300915 20.099327 0.405017 -49.470865 37.081118 -15.036591 0.000000 0.000000 0.000000 
-0.379782 0.936813 -0.026287 -1.703356 2.014501 4.450382 5.902634 -0.111577 1.529188 1.311172 0.129735 -5.939389 2.564622 7.350640 5.933146 0.000000 0.000000 0.000000 -0.835590 0.577785 -5.895966 -0.101147 0.011012 0.004065 0.170840 -1.122384 3.337976 0.000000 0.000000 0.000000 -1.497282 0.182936 -5.622849 0.323538 -0.251683 2.447666 2.609695 0.031987 3.852254 7.692676 -3.513010 -15.553619 0.000000 0.000000 0.000000 -27.536047 -4.354156 -0.253816 -30.768256 0.132930 -3.471456 -68.136639 -49.988926 37.344141 0.000000 0.000000 0.000000 18.497396 11.165222 4.415067 16.816905 20.433399 0.318483 -46.369064 33.749390 -12.477465 0.000000 0.000000 0.000000 
-0.379447 0.936744 -0.025097 -1.715514 2.267825 4.440993 5.919715 -0.116309 1.519298 1.230776 0.127459 -5.788016 2.564817 7.362005 5.929917 0.000000 0.000000 0.000000 -0.877060 0.560554 -5.718368 -0.055846 0.007286 0.033564 0.069818 -1.410737 3.484536 0.000000 0.000000 0.000000 -1.561560 0.179214 -5.598950 0.533867 -0.349804 2.217954 2.727915 0.156613 4.030874 8.212297 -3.874572 -15.205830 0.000000 0.000000 0.000000 -27.055159 -4.235592 -0.375367 -30.563661 0.718544 -3.562565 -68.519378 -49.210996 36.900577 0.000000 0.000000 0.000000 18.480478 11.043021 4.419757 15.643387 20.434285 0.190151 -44.024141 31.644812 -10.868266 0.000000 0.000000 0.000000 
-0.379105 0.936652 -0.023760 -1.759863 2.524629 4.333084 5.795843 -0.105930 1.705336 1.326226 0.118756 -5.703704 2.250553 6.773871 5.829933 0.000000 0.000000 0.000000 -0.750974 0.535310 -5.422045 -0.166421 0.020373 0.057577 -0.108200 -1.881192 3.641315 0.000000 0.000000 0.000000 -1.692598 0.172741 -5.558444 0.777968 -0.479419 2.329289 2.706042 0.410920 3.940020 8.798404 -4.284550 -14.721023 0.000000 0.000000 0.000000 -26.696326 -4.037306 -0.621447 -30.129016 1.408109 -3.614646 -69.912295 -48.693531 37.248943 0.000000 0.000000 0.000000 18.646361 11.023359 4.520323 14.854490 20.055673 0.071234 -42.814288 30.055336 -9.865057 0.000000 0.000000 0.000000 
-0.378629 0.936552 -0.022535 -1.730331 2.864904 4.303477 5.742675 -0.111267 1.613420 1.203713 0.115286 -5.463340 2.131846 6.481744 5.540112 0.000000 0.000000 0.000000 -0.623379 0.521612 -5.251970 -0.319310 0.044249 0.225106 -0.291934 -2.186741 3.368905 0.000000 0.000000 0.000000 -1.762353 0.165453 -5.416006 0.867997 -0.531800 2.400178 2.861114 0.695915 3.942004 9.083459 -4.485989 -14.396098 0.000000 0.000000 0.000000 -26.136179 -3.830173 -0.852800 -30.086377 1.811736 -3.659219 -71.967110 -48.615033 38.375500 0.000000 0.000000 0.000000 18.844742 10.921356 4.589931 14.217183 19.879265 -0.020273 -42.736684 28.653003 -9.266845 0.000000 0.000000 0.000000 
-0.377888 0.936534 -0.021667 -1.727485 3.215098 4.215523 5.795124 -0.120759 1.517597 1.099834 0.108436 -5.154657 1.829785 6.001650 5.700786 0.000000 0.000000 0.000000 -0.398173 0.496896 -4.953011 -0.456971 0.070150 0.467684 -0.385879 -2.412512 3.422867 0.000000 0.000000 0.000000 -1.873702 0.156924 -5.260341 0.976975 -0.602125 2.628684 3.066886 0.886862 3.929252 9.622140 -4.757727 -14.613409 0.000000 0.000000 0.000000 -26.060808 -3.651388 -1.071657 -29.715972 2.438267 -3.713744 -74.627951 -49.107801 40.438483 0.000000 0.000000 0.000000 18.835333 11.156390 4.809628 13.553535 19.869449 -0.092278 -42.996091 27.166533 -8.739768 0.000000 0.000000 0.000000 
-0.376802 0.936704 -0.021135 -1.753994 3.481972 4.186478 5.713011 -0.128824 1.288589 1.109824 0.094536 -4.827247 1.592502 5.581847 5.697320 0.000000 0.000000 0.000000 -0.388091 0.476295 -4.734520 -0.463333 0.069465 0.430025 -0.412376 -2.468874 3.441481 0.000000 0.000000 0.000000 -1.861624 0.152517 -5.103809 0.984831 -0.616421 2.765054 3.235462 1.198373 4.005117 10.010157 -4.890467 -15.021399 0.000000 0.000000 0.000000 -26.082538 -3.757562 -1.153699 -29.850909 2.911060 -3.798892 -76.692055 -49.802482 42.329418 0.000000 0.000000 0.000000 18.769231 11.482334 5.105273 12.628143 19.899650 -0.189206 -43.122013 25.907307 -8.258242 0.000000 0.000000 0.000000 
-0.375479 0.936797 -0.020818 -1.789333 3.746520 4.081472 5.616778 -0.133718 1.098638 1.062819 0.077051 -4.326745 1.377721 5.117218 5.458647 0.000000 0.000000 0.000000 -0.385923 0.463682 -4.602367 -0.586601 0.091143 0.599573 -0.491315 -2.717087 3.645913 0.000000 0.000000 0.000000 -1.846018 0.146766 -4.892714 1.100902 -0.668174 2.589495 3.326928 1.375941 4.413265 10.433618 -5.107181 -15.222429 0.000000 0.000000 0.000000 -26.338099 -3.841507 -1.228311 -29.791294 3.655134 -3.940611 -79.115936 -51.015332 45.046726 0.000000 0.000000 0.000000 18.548046 11.822280 5.381498 11.777192 20.063296 -0.277747 -43.318881 24.481051 -7.743364 0.000000 0.000000 0.000000 
-0.374117 0.936697 -0.020554 -1.737234 3.868930 4.107052 5.366248 -0.135627 0.825959 1.032973 0.068336 -4.062751 1.348674 5.017310 5.312357 0.000000 0.000000 0.000000 -0.418212 0.455407 -4.519219 -0.839692 0.122958 0.648022 -0.557161 -2.851413 3.608684 0.000000 0.000000 0.000000 -1.848878 0.145219 -4.839542 0.977274 -0.620407 2.830371 3.349053 1.658431 4.258394 10.658238 -5.132843 -15.602953 0.000000 0.000000 0.000000 -26.459507 -3.995755 -1.274920 -30.097132 4.032923 -4.024371 -80.268580 -51.464298 46.200572 0.000000 0.000000 0.000000 18.250904 12.284194 5.702908 11.242956 20.251059 -0.320438 -43.307931 23.126170 -7.199442 0.000000 0.000000 0.000000 
-0.373037 0.936496 -0.020400 -1.685122 4.017567 3.901456 5.200165 -0.125357 0.885286 1.050518 0.056153 -3.791707 1.336034 4.840007 4.880553 0.000000 0.000000 0.000000 -0.496521 0.419209 -4.152817 -0.913318 0.132545 0.662638 -0.577158 -2.876066 3.566499 0.000000 0.000000 0.000000 -1.942153 0.134577 -4.499150 0.864730 -0.566670 2.858140 3.440887 1.885768 4.321473 10.612507 -5.019129 -15.914231 0.000000 0.000000 0.000000 -27.133100 -4.294995 -1.268770 -30.013148 4.274382 -4.035193 -81.393673 -51.940469 47.411560 0.000000 0.000000 0.000000 17.972980 12.633452 5.950484 10.878557 19.941935 -0.374877 -43.072566 22.564336 -6.923714 0.000000 0.000000 0.000000 
-0.372365 0.936272 -0.020353 -1.735932 4.292489 3.811472 5.149567 -0.126071 0.868738 1.258133 0.028674 -3.471682 1.286498 4.660957 4.620599 0.000000 0.000000 0.000000 -0.490321 0.389704 -3.842590 -0.906864 0.120656 0.409043 -0.651097 -3.079777 3.689817 0.000000 0.000000 0.000000 -2.086317 0.126860 -4.329754 0.986378 -0.632963 2.877789 3.157302 2.050809 4.248636 10.787375 -5.028792 -16.213004 0.000000 0.000000 0.000000 -27.308654 -4.620841 -1.229349 -30.122515 3.958018 -3.942941 -81.335055 -52.177223 47.492658 0.000000 0.000000 0.000000 18.198491 12.973450 6.256922 10.583886 19.123063 -0.444036 -43.034533 22.229075 -6.766913 0.000000 0.000000 0.000000 
-0.371966 0.935879 -0.020430 -1.863700 4.650006 3.576497 5.330994 -0.131566 0.959799 1.124230 0.028558 -3.234074 1.233214 4.346496 4.041099 0.000000 0.000000 0.000000 -0.572912 0.360560 -3.545475 -0.687885 0.091744 0.317280 -0.745107 -3.272609 3.661528 0.000000 0.000000 0.000000 -2.266949 0.114582 -3.971449 1.073369 -0.680019 2.851298 3.133213 2.070458 4.273195 10.873601 -4.933027 -16.849861 0.000000 0.000000 0.000000 -27.301927 -4.976117 -1.087267 -30.419938 3.386581 -3.844129 -81.494459 -52.104610 47.474554 0.000000 0.000000 0.000000 18.303495 13.065374 6.374241 10.809771 18.202958 -0.475128 -43.518203 22.946844 -7.111568 0.000000 0.000000 0.000000 
